# xmcd CD database file
#
# Track frame offsets:
#	187
#	38397
#	62372
#	95217
#	121722
#	151597
#	183120
#	207922
#	238910
#	267762
#
# Disc length: 3964 seconds
#
# Revision: 0
# Processed by: cddbd v1.5.2PL0 Copyright (c) Steve Scherf et al.
# Submitted via: CDex 1.51
#
DISCID=740f7a0a
DTITLE=Thelonious Monk and Gerry Mulligan - Mulligan Meets Monk
DYEAR=1957
DGENRE=Jazz
TTITLE0='Round Midnight
TTITLE1=Rhythm-A-Ning
TTITLE2=Sweet and Lovely
TTITLE3=Decidedly (Take 4)
TTITLE4=Decidedly (Take 5)
TTITLE5=Straight, No Chaser (Take 3)
TTITLE6=Straight, No Chaser (Take 1)
TTITLE7=I Mean You (Take 4)
TTITLE8=I Mean You (Take 1)
TTITLE9=I Mean You (Take 2)
EXTD=YEAR: 1957
EXTT0=
EXTT1=
EXTT2=
EXTT3=
EXTT4=
EXTT5=
EXTT6=
EXTT7=
EXTT8=
EXTT9=
PLAYORDER=
